<svg xmlns="http://www.w3.org/2000/svg" width="256" height="256" viewBox="0 0 100 100"><rect width="100" height="100" rx="20" fill="#1e40af"></rect><path fill="#fff" d="M76.10 36.95L76.10 36.95Q76.10 40.99 74.70 44.73Q73.29 48.46 70.13 51.32Q66.96 54.17 61.91 55.87Q56.86 57.56 49.56 57.56L49.56 57.56L46.48 57.56L46.48 71.97Q46.48 73.73 46.88 74.81Q47.28 75.88 47.93 76.43Q48.59 76.98 49.47 77.16Q50.35 77.33 51.27 77.33L51.27 77.33L56.77 77.33L56.77 82.12L23.90 82.12L23.90 77.33L27.68 77.33Q28.69 77.33 29.52 77.14Q30.36 76.94 30.97 76.32Q31.59 75.71 31.94 74.57Q32.29 73.42 32.29 71.49L32.29 71.49L32.29 28.12Q32.29 26.31 31.94 25.24Q31.59 24.16 30.95 23.59Q30.31 23.02 29.48 22.82Q28.64 22.62 27.68 22.62L27.68 22.62L23.90 22.62L23.90 17.88L51.54 17.88Q57.78 17.88 62.39 19.19Q67.01 20.51 70.06 23.00Q73.12 25.48 74.61 28.99Q76.10 32.51 76.10 36.95ZM46.48 23.19L46.48 52.33L48.68 52.33Q52.02 52.33 54.35 51.49Q56.68 50.66 58.15 48.86Q59.62 47.06 60.31 44.20Q60.99 41.34 60.99 37.30L60.99 37.30Q60.99 33.70 60.39 31.04Q59.80 28.38 58.50 26.64Q57.21 24.91 55.12 24.05Q53.03 23.19 50 23.19L50 23.19L46.48 23.19Z"></path></svg>